<svg xmlns="http://www.w3.org/2000/svg" xmlns:xlink="http://www.w3.org/1999/xlink" version="1.1" id="Layer_1" x="0px" y="0px" viewBox="0 0 38 38" style="enable-background:new 0 0 38 38;" xml:space="preserve">
<style type="text/css">
	.st0{fill:none;stroke:#FF2C2C;stroke-width:2;stroke-opacity:0.5;}
	.st1{fill:none;stroke:#FF2C2C;stroke-width:2;}
	.st2{fill:#FFCD05;}
	.st3{fill:#E11E26;}
</style>
<g>
	<g transform="translate(1 1)">
		<circle class="st0" cx="18" cy="18" r="18"/>
		




	</g>
</g>
<path class="st2" d="M19,36C9.7,36,2,28.4,2,19S9.7,2,19,2s17,7.6,17,17S28.4,36,19,36L19,36z"/>
<path class="st3" d="M25.7,10.3v8.9c0,0.3,0,0.5,0.1,1.1l-0.6-0.8c-0.4-0.4-0.8-0.8-1.2-1.2l0,0c-0.5-0.5-1.2-1.2-1.8-1.8  c-1.1-1-2-1.8-3.2-2.6c-1.1-0.8-2.2-1.5-3.4-2.1c-1.1-0.6-2.4-1.1-3.5-1.5H9v15.2h3.6V15.3c0-0.2,0-0.4-0.1-1.1l0.5,0.2l0.4,0.2  c2.1,0.9,4,2,5.8,3.6l0,0l0.3,0.2c2.3,2.1,4.3,4.5,6.1,7h3.9V10.3C29.5,10.3,25.7,10.3,25.7,10.3z"/>
</svg>
